<?xml version="1.0" encoding="UTF-8" standalone="no"?>
<!DOCTYPE svg PUBLIC "-//W3C//DTD SVG 1.1//EN"
 "http://www.w3.org/Graphics/SVG/1.1/DTD/svg11.dtd">
<!-- Generated by graphviz version 2.40.1 (20161225.0304)
 -->
<!-- Title: dependencies Pages: 1 -->
<svg width="1515pt" height="284pt"
 viewBox="0.00 0.00 1515.00 284.00" xmlns="http://www.w3.org/2000/svg" xmlns:xlink="http://www.w3.org/1999/xlink">
<g id="graph0" class="graph" transform="scale(1 1) rotate(0) translate(4 280)">
<title>dependencies</title>
<polygon fill="#ffffff" stroke="transparent" points="-4,4 -4,-280 1511,-280 1511,4 -4,4"/>
<text text-anchor="start" x="732.5091" y="-42.4" font-family="sans-serif" font-weight="bold" font-size="14.00" fill="#000000">Legend</text>
<polygon fill="#ffffb3" stroke="transparent" points="519.5,-10 519.5,-30 539.5,-30 539.5,-10 519.5,-10"/>
<text text-anchor="start" x="543.129" y="-15.4" font-family="sans-serif" font-size="14.00" fill="#000000"> &#160;Declarations</text>
<polygon fill="#8dd3c7" stroke="transparent" points="632.5,-10 632.5,-30 652.5,-30 652.5,-10 632.5,-10"/>
<text text-anchor="start" x="656.2251" y="-15.4" font-family="sans-serif" font-size="14.00" fill="#000000"> &#160;Module</text>
<polygon fill="#80b1d3" stroke="transparent" points="718.5,-10 718.5,-30 738.5,-30 738.5,-10 718.5,-10"/>
<text text-anchor="start" x="742.2812" y="-15.4" font-family="sans-serif" font-size="14.00" fill="#000000"> &#160;Bootstrap</text>
<polygon fill="#fdb462" stroke="transparent" points="815.5,-10 815.5,-30 835.5,-30 835.5,-10 815.5,-10"/>
<text text-anchor="start" x="839.1732" y="-15.4" font-family="sans-serif" font-size="14.00" fill="#000000"> &#160;Providers</text>
<polygon fill="#fb8072" stroke="transparent" points="911.5,-10 911.5,-30 931.5,-30 931.5,-10 911.5,-10"/>
<text text-anchor="start" x="935.2258" y="-15.4" font-family="sans-serif" font-size="14.00" fill="#000000"> &#160;Exports</text>
<g id="clust1" class="cluster">
<title>cluster_AppModule</title>
<polygon fill="none" stroke="#000000" stroke-dasharray="1,5" points="8,-70 8,-268 1499,-268 1499,-70 8,-70"/>
</g>
<g id="clust2" class="cluster">
<title>cluster_AppModule_declarations</title>
<polygon fill="none" stroke="#000000" points="16,-78 16,-130 1491,-130 1491,-78 16,-78"/>
</g>
<g id="clust14" class="cluster">
<title>cluster_AppModule_bootstrap</title>
<polygon fill="none" stroke="#000000" points="726,-208 726,-260 850,-260 850,-208 726,-208"/>
</g>
<!-- AppComponent -->
<g id="node1" class="node">
<title>AppComponent</title>
<polygon fill="#ffffb3" stroke="#000000" points="1482.9399,-122 1377.0601,-122 1377.0601,-86 1482.9399,-86 1482.9399,-122"/>
<text text-anchor="middle" x="1430" y="-99.8" font-family="Times,serif" font-size="14.00" fill="#000000">AppComponent</text>
</g>
<!-- AppModule -->
<g id="node10" class="node">
<title>AppModule</title>
<polygon fill="#8dd3c7" stroke="#000000" points="829.6571,-187 826.6571,-191 805.6571,-191 802.6571,-187 746.3429,-187 746.3429,-151 829.6571,-151 829.6571,-187"/>
<text text-anchor="middle" x="788" y="-164.8" font-family="Times,serif" font-size="14.00" fill="#000000">AppModule</text>
</g>
<!-- AppComponent&#45;&gt;AppModule -->
<g id="edge1" class="edge">
<title>AppComponent&#45;&gt;AppModule</title>
<path fill="none" stroke="#000000" d="M1430,-122.0109C1430,-144.4852 1430,-180 1430,-180 1430,-180 840.1234,-180 840.1234,-180"/>
<polygon fill="#000000" stroke="#000000" points="840.1234,-176.5001 830.1234,-180 840.1234,-183.5001 840.1234,-176.5001"/>
</g>
<!-- HomeComponent -->
<g id="node2" class="node">
<title>HomeComponent</title>
<polygon fill="#ffffb3" stroke="#000000" points="1359.5451,-122 1244.4549,-122 1244.4549,-86 1359.5451,-86 1359.5451,-122"/>
<text text-anchor="middle" x="1302" y="-99.8" font-family="Times,serif" font-size="14.00" fill="#000000">HomeComponent</text>
</g>
<!-- HomeComponent&#45;&gt;AppModule -->
<g id="edge2" class="edge">
<title>HomeComponent&#45;&gt;AppModule</title>
<path fill="none" stroke="#000000" d="M1302,-122.1289C1302,-142.5724 1302,-173 1302,-173 1302,-173 840.0628,-173 840.0628,-173"/>
<polygon fill="#000000" stroke="#000000" points="840.0628,-169.5001 830.0628,-173 840.0627,-176.5001 840.0628,-169.5001"/>
</g>
<!-- TableBasicExampleComponent -->
<g id="node3" class="node">
<title>TableBasicExampleComponent</title>
<polygon fill="#ffffb3" stroke="#000000" points="1226.0688,-122 1031.9312,-122 1031.9312,-86 1226.0688,-86 1226.0688,-122"/>
<text text-anchor="middle" x="1129" y="-99.8" font-family="Times,serif" font-size="14.00" fill="#000000">TableBasicExampleComponent</text>
</g>
<!-- TableBasicExampleComponent&#45;&gt;AppModule -->
<g id="edge3" class="edge">
<title>TableBasicExampleComponent&#45;&gt;AppModule</title>
<path fill="none" stroke="#000000" d="M1129,-122.2667C1129,-140.5552 1129,-166 1129,-166 1129,-166 839.8133,-166 839.8133,-166"/>
<polygon fill="#000000" stroke="#000000" points="839.8133,-162.5001 829.8133,-166 839.8133,-169.5001 839.8133,-162.5001"/>
</g>
<!-- DecryptComponent -->
<g id="node4" class="node">
<title>DecryptComponent</title>
<polygon fill="#ffffb3" stroke="#000000" points="1014.4201,-122 887.5799,-122 887.5799,-86 1014.4201,-86 1014.4201,-122"/>
<text text-anchor="middle" x="951" y="-99.8" font-family="Times,serif" font-size="14.00" fill="#000000">DecryptComponent</text>
</g>
<!-- DecryptComponent&#45;&gt;AppModule -->
<g id="edge4" class="edge">
<title>DecryptComponent&#45;&gt;AppModule</title>
<path fill="none" stroke="#000000" d="M951,-122.0091C951,-138.0494 951,-159 951,-159 951,-159 839.9766,-159 839.9766,-159"/>
<polygon fill="#000000" stroke="#000000" points="839.9766,-155.5001 829.9766,-159 839.9765,-162.5001 839.9766,-155.5001"/>
</g>
<!-- CriptogrammaComponent -->
<g id="node5" class="node">
<title>CriptogrammaComponent</title>
<polygon fill="#ffffb3" stroke="#000000" points="869.4818,-122 706.5182,-122 706.5182,-86 869.4818,-86 869.4818,-122"/>
<text text-anchor="middle" x="788" y="-99.8" font-family="Times,serif" font-size="14.00" fill="#000000">CriptogrammaComponent</text>
</g>
<!-- CriptogrammaComponent&#45;&gt;AppModule -->
<g id="edge5" class="edge">
<title>CriptogrammaComponent&#45;&gt;AppModule</title>
<path fill="none" stroke="#000000" d="M788,-122.1061C788,-122.1061 788,-140.991 788,-140.991"/>
<polygon fill="#000000" stroke="#000000" points="784.5001,-140.9909 788,-150.991 791.5001,-140.991 784.5001,-140.9909"/>
</g>
<!-- SearchDetailsComponent -->
<g id="node6" class="node">
<title>SearchDetailsComponent</title>
<polygon fill="#ffffb3" stroke="#000000" points="688.5716,-122 529.4284,-122 529.4284,-86 688.5716,-86 688.5716,-122"/>
<text text-anchor="middle" x="609" y="-99.8" font-family="Times,serif" font-size="14.00" fill="#000000">SearchDetailsComponent</text>
</g>
<!-- SearchDetailsComponent&#45;&gt;AppModule -->
<g id="edge6" class="edge">
<title>SearchDetailsComponent&#45;&gt;AppModule</title>
<path fill="none" stroke="#000000" d="M609,-122.0091C609,-138.0494 609,-159 609,-159 609,-159 736.0325,-159 736.0325,-159"/>
<polygon fill="#000000" stroke="#000000" points="736.0325,-162.5001 746.0325,-159 736.0324,-155.5001 736.0325,-162.5001"/>
</g>
<!-- DialogPostComponent -->
<g id="node7" class="node">
<title>DialogPostComponent</title>
<polygon fill="#ffffb3" stroke="#000000" points="511.5533,-122 368.4467,-122 368.4467,-86 511.5533,-86 511.5533,-122"/>
<text text-anchor="middle" x="440" y="-99.8" font-family="Times,serif" font-size="14.00" fill="#000000">DialogPostComponent</text>
</g>
<!-- DialogPostComponent&#45;&gt;AppModule -->
<g id="edge7" class="edge">
<title>DialogPostComponent&#45;&gt;AppModule</title>
<path fill="none" stroke="#000000" d="M440,-122.2667C440,-140.5552 440,-166 440,-166 440,-166 736.0231,-166 736.0231,-166"/>
<polygon fill="#000000" stroke="#000000" points="736.0231,-169.5001 746.0231,-166 736.023,-162.5001 736.0231,-169.5001"/>
</g>
<!-- DialogUpdateComponent -->
<g id="node8" class="node">
<title>DialogUpdateComponent</title>
<polygon fill="#ffffb3" stroke="#000000" points="349.8613,-122 190.1387,-122 190.1387,-86 349.8613,-86 349.8613,-122"/>
<text text-anchor="middle" x="270" y="-99.8" font-family="Times,serif" font-size="14.00" fill="#000000">DialogUpdateComponent</text>
</g>
<!-- DialogUpdateComponent&#45;&gt;AppModule -->
<g id="edge8" class="edge">
<title>DialogUpdateComponent&#45;&gt;AppModule</title>
<path fill="none" stroke="#000000" d="M270,-122.1289C270,-142.5724 270,-173 270,-173 270,-173 736.0487,-173 736.0487,-173"/>
<polygon fill="#000000" stroke="#000000" points="736.0487,-176.5001 746.0487,-173 736.0486,-169.5001 736.0487,-176.5001"/>
</g>
<!-- DecriptaUrlComponent -->
<g id="node9" class="node">
<title>DecriptaUrlComponent</title>
<polygon fill="#ffffb3" stroke="#000000" points="172.1825,-122 23.8175,-122 23.8175,-86 172.1825,-86 172.1825,-122"/>
<text text-anchor="middle" x="98" y="-99.8" font-family="Times,serif" font-size="14.00" fill="#000000">DecriptaUrlComponent</text>
</g>
<!-- DecriptaUrlComponent&#45;&gt;AppModule -->
<g id="edge9" class="edge">
<title>DecriptaUrlComponent&#45;&gt;AppModule</title>
<path fill="none" stroke="#000000" d="M98,-122.0109C98,-144.4852 98,-180 98,-180 98,-180 736.134,-180 736.134,-180"/>
<polygon fill="#000000" stroke="#000000" points="736.1341,-183.5001 746.134,-180 736.134,-176.5001 736.1341,-183.5001"/>
</g>
<!-- AppComponent  -->
<g id="node11" class="node">
<title>AppComponent </title>
<polygon fill="#80b1d3" stroke="#000000" points="842.439,-252 733.561,-252 733.561,-216 842.439,-216 842.439,-252"/>
<text text-anchor="middle" x="788" y="-229.8" font-family="Times,serif" font-size="14.00" fill="#000000">AppComponent </text>
</g>
<!-- AppModule&#45;&gt;AppComponent  -->
<g id="edge10" class="edge">
<title>AppModule&#45;&gt;AppComponent </title>
<path fill="none" stroke="#000000" stroke-dasharray="1,5" d="M788,-187.1061C788,-187.1061 788,-205.991 788,-205.991"/>
<polygon fill="#000000" stroke="#000000" points="784.5001,-205.9909 788,-215.991 791.5001,-205.991 784.5001,-205.9909"/>
</g>
</g>
</svg>
